<?xml version="1.0" standalone="no"?><!DOCTYPE svg PUBLIC "-//W3C//DTD SVG 1.1//EN" "http://www.w3.org/Graphics/SVG/1.1/DTD/svg11.dtd"><svg class="icon" height="512" viewBox="0 0 1024 1024" version="1.1" xmlns="http://www.w3.org/2000/svg"><path d="M684.373333 421.546667H373.475556a19.057778 19.057778 0 1 0 0 38.115555h310.897777a19.057778 19.057778 0 1 0 0-38.115555zM705.422222 284.444444h-117.76a12.231111 12.231111 0 0 0 0 24.746667h117.76a12.231111 12.231111 0 0 0 0-24.746667zM705.422222 338.204444h-117.76a12.231111 12.231111 0 1 0 0 24.746667h117.76a12.231111 12.231111 0 0 0 0-24.746667zM390.542222 372.337778h137.386667A30.435556 30.435556 0 0 0 558.364444 341.333333V204.515556a30.435556 30.435556 0 0 0-30.435555-30.435556h-137.386667a30.435556 30.435556 0 0 0-30.435555 30.435556V341.333333a30.435556 30.435556 0 0 0 30.435555 31.004445z m-1.991111-158.151111h142.222222a5.688889 5.688889 0 1 1 0 11.662222h-142.222222a5.688889 5.688889 0 1 1 0-11.662222z m0 53.475555h142.222222a5.688889 5.688889 0 0 1 0 11.662222h-142.222222a5.688889 5.688889 0 0 1 0-11.662222z m0 53.475556h142.222222a5.688889 5.688889 0 0 1 0 11.662222h-142.222222a5.688889 5.688889 0 0 1 0-11.662222zM245.475556 362.951111c0 34.417778 26.737778 65.706667 70.257777 89.315556V273.351111c-43.52 23.893333-70.257778 55.182222-70.257777 89.6zM739.555556 282.453333v160.711111a101.831111 101.831111 0 0 0 56.888888-80.213333 101.546667 101.546667 0 0 0-56.888888-80.497778zM705.422222 232.391111h-117.76a12.231111 12.231111 0 1 0 0 24.746667h117.76a12.231111 12.231111 0 0 0 0-24.746667z" fill="" /><path d="M512 0a512 512 0 1 0 512 512A512 512 0 0 0 512 0z m355.555556 772.835556c0 48.071111-47.786667 87.608889-106.097778 87.608888H262.542222c-58.311111 0-106.097778-39.253333-106.097778-87.608888v-358.4a70.542222 70.542222 0 0 1 2.275556-17.92c12.231111-71.68 71.68-133.688889 157.013333-170.666667V153.031111a28.444444 28.444444 0 0 1 30.435556-28.444444H711.111111a28.444444 28.444444 0 0 1 30.435556 28.444444v87.893333a236.373333 236.373333 0 0 1 123.164444 147.342223 101.831111 101.831111 0 0 1 3.982222 25.884444z" fill="" /><path d="M705.422222 179.484444h-117.76a12.231111 12.231111 0 1 0 0 24.746667h117.76a12.231111 12.231111 0 0 0 0-24.746667z" fill="" /></svg>